<svg xmlns="http://www.w3.org/2000/svg" xmlns:xlink="http://www.w3.org/1999/xlink">
  <defs>
    <!-- BEGIN LINE DUOTONE -->
    <!-- Arrows -->
    <symbol id="lineDuotoneArrowsDoubleAltArrowLeft">
      <path d="M13 19L7 12L13 5" stroke-width="1.5" stroke-linecap="round" stroke-linejoin="round"/>
      <path opacity="0.5" d="M16.9998 19L10.9998 12L16.9998 5" stroke-width="1.5" stroke-linecap="round" stroke-linejoin="round"/>
    </symbol>
    <symbol id="lineDuotoneArrowsActionUpload">
      <path opacity="0.5" d="M17 9.00195C19.175 9.01406 20.3529 9.11051 21.1213 9.8789C22 10.7576 22 12.1718 22 15.0002V16.0002C22 18.8286 22 20.2429 21.1213 21.1215C20.2426 22.0002 18.8284 22.0002 16 22.0002H8C5.17157 22.0002 3.75736 22.0002 2.87868 21.1215C2 20.2429 2 18.8286 2 16.0002L2 15.0002C2 12.1718 2 10.7576 2.87868 9.87889C3.64706 9.11051 4.82497 9.01406 7 9.00195" stroke-width="1.5" stroke-linecap="round"/>
      <path d="M12 15L12 2M12 2L15 5.5M12 2L9 5.5" stroke-width="1.5" stroke-linecap="round" stroke-linejoin="round"/>
    </symbol>
    <symbol id="lineDuotoneArrowsAltArrowLeft">
      <path d="M15 5L9 12L15 19" stroke-width="1.5" stroke-linecap="round" stroke-linejoin="round"/>
    </symbol>
    <symbol id="lineDuotoneArrowsAltArrowRight">
      <path d="M9 5L15 12L9 19" stroke-width="1.5" stroke-linecap="round" stroke-linejoin="round"/>
    </symbol>
    <symbol id="lineDuotoneArrowsAltArrowUp">
      <path d="M19 15L12 9L5 15" stroke-width="1.5" stroke-linecap="round" stroke-linejoin="round"/>
    </symbol>
    <symbol id="lineDuotoneArrowsAltArrowDown">
      <path d="M19 9L12 15L5 9" stroke-width="1.5" stroke-linecap="round" stroke-linejoin="round"/>
    </symbol>
    <symbol id="lineDuotoneArrowsActionDownloadMinimalistic">
      <path opacity="0.5" d="M3 15C3 17.8284 3 19.2426 3.87868 20.1213C4.75736 21 6.17157 21 9 21H15C17.8284 21 19.2426 21 20.1213 20.1213C21 19.2426 21 17.8284 21 15" stroke-width="1.5" stroke-linecap="round" stroke-linejoin="round"/>
      <path d="M12 3V16M12 16L16 11.625M12 16L8 11.625" stroke-width="1.5" stroke-linecap="round" stroke-linejoin="round"/>
    </symbol>

    <!-- Users -->
    <symbol id="lineDuotoneUsersUserRounded">
      <circle cx="12" cy="6" r="4" stroke-width="1.5"/>
      <ellipse opacity="0.5" cx="12" cy="17" rx="7" ry="4" stroke-width="1.5"/>
    </symbol>

    <!-- Security -->
    <symbol id="lineDuotoneSecurityLockPassword">
      <path d="M2 16C2 13.1716 2 11.7574 2.87868 10.8787C3.75736 10 5.17157 10 8 10H16C18.8284 10 20.2426 10 21.1213 10.8787C22 11.7574 22 13.1716 22 16C22 18.8284 22 20.2426 21.1213 21.1213C20.2426 22 18.8284 22 16 22H8C5.17157 22 3.75736 22 2.87868 21.1213C2 20.2426 2 18.8284 2 16Z" stroke="currentColor" stroke-width="1.5"/>
      <path opacity="0.5" d="M6 10V8C6 4.68629 8.68629 2 12 2C15.3137 2 18 4.68629 18 8V10" stroke="currentColor" stroke-width="1.5" stroke-linecap="round"/>
      <g opacity="0.5">
        <path d="M9 16C9 16.5523 8.55228 17 8 17C7.44772 17 7 16.5523 7 16C7 15.4477 7.44772 15 8 15C8.55228 15 9 15.4477 9 16Z" fill="currentColor"/>
        <path d="M13 16C13 16.5523 12.5523 17 12 17C11.4477 17 11 16.5523 11 16C11 15.4477 11.4477 15 12 15C12.5523 15 13 15.4477 13 16Z" fill="currentColor"/>
        <path d="M17 16C17 16.5523 16.5523 17 16 17C15.4477 17 15 16.5523 15 16C15 15.4477 15.4477 15 16 15C16.5523 15 17 15.4477 17 16Z" fill="currentColor"/>
      </g>
    </symbol>
    <symbol id="lineDuotoneSecurityEye">
      <path opacity="0.5" d="M3.27489 15.2957C2.42496 14.1915 2 13.6394 2 12C2 10.3606 2.42496 9.80853 3.27489 8.70433C4.97196 6.49956 7.81811 4 12 4C16.1819 4 19.028 6.49956 20.7251 8.70433C21.575 9.80853 22 10.3606 22 12C22 13.6394 21.575 14.1915 20.7251 15.2957C19.028 17.5004 16.1819 20 12 20C7.81811 20 4.97196 17.5004 3.27489 15.2957Z" stroke-width="1.5"/>
      <path d="M15 12C15 13.6569 13.6569 15 12 15C10.3431 15 9 13.6569 9 12C9 10.3431 10.3431 9 12 9C13.6569 9 15 10.3431 15 12Z" stroke-width="1.5"/>
    </symbol>
    
    <!-- Weather -->
    <symbol id="lineDuotoneWeatherSun2">
      <circle cx="12" cy="12" r="5" stroke-width="1.5"/>
      <path d="M12 2V4" stroke-width="1.5" stroke-linecap="round"/>
      <path d="M12 20V22" stroke-width="1.5" stroke-linecap="round"/>
      <path d="M4 12L2 12" stroke-width="1.5" stroke-linecap="round"/>
      <path d="M22 12L20 12" stroke-width="1.5" stroke-linecap="round"/>
      <path opacity="0.5" d="M19.7778 4.22266L17.5558 6.25424" stroke-width="1.5" stroke-linecap="round"/>
      <path opacity="0.5" d="M4.22217 4.22266L6.44418 6.25424" stroke-width="1.5" stroke-linecap="round"/>
      <path opacity="0.5" d="M6.44434 17.5557L4.22211 19.7779" stroke-width="1.5" stroke-linecap="round"/>
      <path opacity="0.5" d="M19.7778 19.7773L17.5558 17.5551" stroke-width="1.5" stroke-linecap="round"/>
    </symbol>
    <symbol id="lineDuotoneWeatherMoon">
      <path d="M21.0672 11.8568L20.4253 11.469L21.0672 11.8568ZM12.1432 2.93276L11.7553 2.29085V2.29085L12.1432 2.93276ZM21.25 12C21.25 17.1086 17.1086 21.25 12 21.25V22.75C17.9371 22.75 22.75 17.9371 22.75 12H21.25ZM12 21.25C6.89137 21.25 2.75 17.1086 2.75 12H1.25C1.25 17.9371 6.06294 22.75 12 22.75V21.25ZM2.75 12C2.75 6.89137 6.89137 2.75 12 2.75V1.25C6.06294 1.25 1.25 6.06294 1.25 12H2.75ZM15.5 14.25C12.3244 14.25 9.75 11.6756 9.75 8.5H8.25C8.25 12.5041 11.4959 15.75 15.5 15.75V14.25ZM20.4253 11.469C19.4172 13.1373 17.5882 14.25 15.5 14.25V15.75C18.1349 15.75 20.4407 14.3439 21.7092 12.2447L20.4253 11.469ZM9.75 8.5C9.75 6.41182 10.8627 4.5828 12.531 3.57467L11.7553 2.29085C9.65609 3.5593 8.25 5.86509 8.25 8.5H9.75ZM12 2.75C11.9115 2.75 11.8077 2.71008 11.7324 2.63168C11.6686 2.56527 11.6538 2.50244 11.6503 2.47703C11.6461 2.44587 11.6482 2.35557 11.7553 2.29085L12.531 3.57467C13.0342 3.27065 13.196 2.71398 13.1368 2.27627C13.0754 1.82126 12.7166 1.25 12 1.25V2.75ZM21.7092 12.2447C21.6444 12.3518 21.5541 12.3539 21.523 12.3497C21.4976 12.3462 21.4347 12.3314 21.3683 12.2676C21.2899 12.1923 21.25 12.0885 21.25 12H22.75C22.75 11.2834 22.1787 10.9246 21.7237 10.8632C21.286 10.804 20.7293 10.9658 20.4253 11.469L21.7092 12.2447Z"/>
    </symbol>

    <!-- Essentional UI -->
    <symbol id="lineDuotoneEssentionalUIHambergerMenu">
      <path d="M20 7L4 7" stroke-width="1.5" stroke-linecap="round"/>
      <path opacity="0.5" d="M20 12L4 12" stroke-width="1.5" stroke-linecap="round"/>
      <path d="M20 17L4 17" stroke-width="1.5" stroke-linecap="round"/>
    </symbol>
    <symbol id="lineDuotoneEssentionalUIMenuDots">
      <circle cx="5" cy="12" r="2" stroke-width="1.5"/>
      <circle opacity="0.5" cx="12" cy="12" r="2" stroke-width="1.5"/>
      <circle cx="19" cy="12" r="2" stroke-width="1.5"/>
    </symbol>
    <symbol id="lineDuotoneEssentionalUIClose">
      <line x1="18" y1="6" x2="6" y2="18"></line>
      <line x1="6" y1="6" x2="18" y2="18"></line>
    </symbol>
    <symbol id="lineDuotoneEssentionalUIAddSquare">
      <path opacity="0.5" d="M2 12C2 7.28595 2 4.92893 3.46447 3.46447C4.92893 2 7.28595 2 12 2C16.714 2 19.0711 2 20.5355 3.46447C22 4.92893 22 7.28595 22 12C22 16.714 22 19.0711 20.5355 20.5355C19.0711 22 16.714 22 12 22C7.28595 22 4.92893 22 3.46447 20.5355C2 19.0711 2 16.714 2 12Z" stroke-width="1.5"/>
      <path d="M15 12L12 12M12 12L9 12M12 12L12 9M12 12L12 15" stroke-width="1.5" stroke-linecap="round"/>
    </symbol>
    <symbol id="lineDuotoneEssentionalUITrashBinTrash">
      <path d="M20.5001 6H3.5" stroke-width="1.5" stroke-linecap="round"/>
      <path d="M18.8334 8.5L18.3735 15.3991C18.1965 18.054 18.108 19.3815 17.243 20.1907C16.378 21 15.0476 21 12.3868 21H11.6134C8.9526 21 7.6222 21 6.75719 20.1907C5.89218 19.3815 5.80368 18.054 5.62669 15.3991L5.16675 8.5" stroke-width="1.5" stroke-linecap="round"/>
      <path opacity="0.5" d="M9.5 11L10 16" stroke-width="1.5" stroke-linecap="round"/>
      <path opacity="0.5" d="M14.5 11L14 16" stroke-width="1.5" stroke-linecap="round"/>
      <path opacity="0.5" d="M6.5 6C6.55588 6 6.58382 6 6.60915 5.99936C7.43259 5.97849 8.15902 5.45491 8.43922 4.68032C8.44784 4.65649 8.45667 4.62999 8.47434 4.57697L8.57143 4.28571C8.65431 4.03708 8.69575 3.91276 8.75071 3.8072C8.97001 3.38607 9.37574 3.09364 9.84461 3.01877C9.96213 3 10.0932 3 10.3553 3H13.6447C13.9068 3 14.0379 3 14.1554 3.01877C14.6243 3.09364 15.03 3.38607 15.2493 3.8072C15.3043 3.91276 15.3457 4.03708 15.4286 4.28571L15.5257 4.57697C15.5433 4.62992 15.5522 4.65651 15.5608 4.68032C15.841 5.45491 16.5674 5.97849 17.3909 5.99936C17.4162 6 17.4441 6 17.5 6" stroke-width="1.5"/>
    </symbol>

    <!-- Files -->
    <symbol id="lineDuotoneFilesFileDownload">
      <path d="M15.3929 4.05365L14.8912 4.61112L15.3929 4.05365ZM19.3517 7.61654L18.85 8.17402L19.3517 7.61654ZM21.654 10.1541L20.9689 10.4592V10.4592L21.654 10.1541ZM3.17157 20.8284L3.7019 20.2981H3.7019L3.17157 20.8284ZM20.8284 20.8284L20.2981 20.2981L20.2981 20.2981L20.8284 20.8284ZM14 21.25H10V22.75H14V21.25ZM2.75 14V10H1.25V14H2.75ZM21.25 13.5629V14H22.75V13.5629H21.25ZM14.8912 4.61112L18.85 8.17402L19.8534 7.05907L15.8947 3.49618L14.8912 4.61112ZM22.75 13.5629C22.75 11.8745 22.7651 10.8055 22.3391 9.84897L20.9689 10.4592C21.2349 11.0565 21.25 11.742 21.25 13.5629H22.75ZM18.85 8.17402C20.2034 9.3921 20.7029 9.86199 20.9689 10.4592L22.3391 9.84897C21.9131 8.89241 21.1084 8.18853 19.8534 7.05907L18.85 8.17402ZM10.0298 2.75C11.6116 2.75 12.2085 2.76158 12.7405 2.96573L13.2779 1.5653C12.4261 1.23842 11.498 1.25 10.0298 1.25V2.75ZM15.8947 3.49618C14.8087 2.51878 14.1297 1.89214 13.2779 1.5653L12.7405 2.96573C13.2727 3.16993 13.7215 3.55836 14.8912 4.61112L15.8947 3.49618ZM10 21.25C8.09318 21.25 6.73851 21.2484 5.71085 21.1102C4.70476 20.975 4.12511 20.7213 3.7019 20.2981L2.64124 21.3588C3.38961 22.1071 4.33855 22.4392 5.51098 22.5969C6.66182 22.7516 8.13558 22.75 10 22.75V21.25ZM1.25 14C1.25 15.8644 1.24841 17.3382 1.40313 18.489C1.56076 19.6614 1.89288 20.6104 2.64124 21.3588L3.7019 20.2981C3.27869 19.8749 3.02502 19.2952 2.88976 18.2892C2.75159 17.2615 2.75 15.9068 2.75 14H1.25ZM14 22.75C15.8644 22.75 17.3382 22.7516 18.489 22.5969C19.6614 22.4392 20.6104 22.1071 21.3588 21.3588L20.2981 20.2981C19.8749 20.7213 19.2952 20.975 18.2892 21.1102C17.2615 21.2484 15.9068 21.25 14 21.25V22.75ZM21.25 14C21.25 15.9068 21.2484 17.2615 21.1102 18.2892C20.975 19.2952 20.7213 19.8749 20.2981 20.2981L21.3588 21.3588C22.1071 20.6104 22.4392 19.6614 22.5969 18.489C22.7516 17.3382 22.75 15.8644 22.75 14H21.25ZM2.75 10C2.75 8.09318 2.75159 6.73851 2.88976 5.71085C3.02502 4.70476 3.27869 4.12511 3.7019 3.7019L2.64124 2.64124C1.89288 3.38961 1.56076 4.33855 1.40313 5.51098C1.24841 6.66182 1.25 8.13558 1.25 10H2.75ZM10.0298 1.25C8.15538 1.25 6.67442 1.24842 5.51887 1.40307C4.34232 1.56054 3.39019 1.8923 2.64124 2.64124L3.7019 3.7019C4.12453 3.27928 4.70596 3.02525 5.71785 2.88982C6.75075 2.75158 8.11311 2.75 10.0298 2.75V1.25Z" fill="currentColor"/>
      <path opacity="0.5" d="M13 2.5V5C13 7.35702 13 8.53553 13.7322 9.26777C14.4645 10 15.643 10 18 10H22" stroke="currentColor" stroke-width="1.5"/>
      <path opacity="0.5" d="M8.5 13.5L8.5 18.5M8.5 18.5L10.5 16.625M8.5 18.5L6.5 16.625" stroke="currentColor" stroke-width="1.5" stroke-linecap="round" stroke-linejoin="round"/>
    </symbol>
    
    <!-- Messages -->
    <symbol id="lineDuotoneMessagesConversationPen">
      <path d="M15.2869 3.15178L14.3601 4.07866L5.83882 12.5999L5.83881 12.5999C5.26166 13.1771 4.97308 13.4656 4.7249 13.7838C4.43213 14.1592 4.18114 14.5653 3.97634 14.995C3.80273 15.3593 3.67368 15.7465 3.41556 16.5208L2.32181 19.8021L2.05445 20.6042C1.92743 20.9852 2.0266 21.4053 2.31063 21.6894C2.59466 21.9734 3.01478 22.0726 3.39584 21.9456L4.19792 21.6782L7.47918 20.5844L7.47919 20.5844C8.25353 20.3263 8.6407 20.1973 9.00498 20.0237C9.43469 19.8189 9.84082 19.5679 10.2162 19.2751C10.5344 19.0269 10.8229 18.7383 11.4001 18.1612L11.4001 18.1612L19.9213 9.63993L20.8482 8.71306C22.3839 7.17735 22.3839 4.68748 20.8482 3.15178C19.3125 1.61607 16.8226 1.61607 15.2869 3.15178Z" stroke-width="1.5"/>
      <path opacity="0.5" d="M14.36 4.07812C14.36 4.07812 14.4759 6.04774 16.2138 7.78564C17.9517 9.52354 19.9213 9.6394 19.9213 9.6394M4.19789 21.6777L2.32178 19.8015" stroke-width="1.5"/>
    </symbol>
    <symbol id="lineDuotoneMessagesConversationLetter">
      <path opacity="0.5" d="M2 12C2 8.22876 2 6.34315 3.17157 5.17157C4.34315 4 6.22876 4 10 4H14C17.7712 4 19.6569 4 20.8284 5.17157C22 6.34315 22 8.22876 22 12C22 15.7712 22 17.6569 20.8284 18.8284C19.6569 20 17.7712 20 14 20H10C6.22876 20 4.34315 20 3.17157 18.8284C2 17.6569 2 15.7712 2 12Z" stroke-width="1.5"/>
      <path d="M6 8L8.1589 9.79908C9.99553 11.3296 10.9139 12.0949 12 12.0949C13.0861 12.0949 14.0045 11.3296 15.8411 9.79908L18 8" stroke-width="1.5" stroke-linecap="round"/>
    </symbol>
    
    <!-- Search -->
    <symbol id="lineDuotoneSearchMagnifer">
      <circle cx="11.5" cy="11.5" r="9.5" stroke-width="1.5"/>
      <path d="M18.5 18.5L22 22" stroke-width="1.5" stroke-linecap="round"/>
    </symbol>

    <!-- Electronic Devices -->
    <symbol id="lineDuotoneElectronicDevicesSDCard">
      <path d="M3.46447 20.5355C4.92893 22 7.28595 22 12 22C16.714 22 19.0711 22 20.5355 20.5355C22 19.0711 22 16.714 22 12C22 11.6585 22 11.4878 21.9848 11.3142C21.9142 10.5049 21.586 9.71257 21.0637 9.09034C20.9516 8.95687 20.828 8.83317 20.5806 8.58578L15.4142 3.41944C15.1668 3.17206 15.0431 3.04835 14.9097 2.93631C14.2874 2.414 13.4951 2.08581 12.6858 2.01515C12.5122 2 12.3415 2 12 2C7.28595 2 4.92893 2 3.46447 3.46447C2 4.92893 2 7.28595 2 12C2 16.714 2 19.0711 3.46447 20.5355Z" stroke-width="1.5"/>
      <path opacity="0.5" d="M7 6V9" stroke-width="1.5" stroke-linecap="round"/>
      <path d="M10 6V9" stroke-width="1.5" stroke-linecap="round"/>
      <path opacity="0.5" d="M13 6V9" stroke-width="1.5" stroke-linecap="round"/>
    </symbol>

    <!-- Time -->
    <symbol id="lineDuotoneTimeCalendarMinimalistic">
      <path d="M2 12C2 8.22876 2 6.34315 3.17157 5.17157C4.34315 4 6.22876 4 10 4H14C17.7712 4 19.6569 4 20.8284 5.17157C22 6.34315 22 8.22876 22 12V14C22 17.7712 22 19.6569 20.8284 20.8284C19.6569 22 17.7712 22 14 22H10C6.22876 22 4.34315 22 3.17157 20.8284C2 19.6569 2 17.7712 2 14V12Z" stroke-width="1.5"/>
      <path opacity="0.5" d="M7 4V2.5" stroke-width="1.5" stroke-linecap="round"/>
      <path opacity="0.5" d="M17 4V2.5" stroke-width="1.5" stroke-linecap="round"/>
      <path opacity="0.5" d="M2 9H22" stroke-width="1.5" stroke-linecap="round"/>
    </symbol>

    <!-- Map Location -->
    <symbol id="lineDuotoneMapLocationMapPointWave">
      <path opacity="0.5" d="M5 8.51464C5 4.9167 8.13401 2 12 2C15.866 2 19 4.9167 19 8.51464C19 12.0844 16.7658 16.2499 13.2801 17.7396C12.4675 18.0868 11.5325 18.0868 10.7199 17.7396C7.23416 16.2499 5 12.0844 5 8.51464Z" stroke-width="1.5"/>
      <path d="M14 9C14 10.1046 13.1046 11 12 11C10.8954 11 10 10.1046 10 9C10 7.89543 10.8954 7 12 7C13.1046 7 14 7.89543 14 9Z" stroke-width="1.5"/>
      <path d="M20.9605 15.5C21.6259 16.1025 22 16.7816 22 17.5C22 19.9853 17.5228 22 12 22C6.47715 22 2 19.9853 2 17.5C2 16.7816 2.37412 16.1025 3.03947 15.5" stroke-width="1.5" stroke-linecap="round"/>
    </symbol>
    
    <!-- Call -->
    <symbol id="lineDuotoneCallPhoneRounded">
      <path d="M5.00659 6.93309C5.04956 5.7996 5.70084 4.77423 6.53785 3.93723C7.9308 2.54428 10.1532 2.73144 11.0376 4.31617L11.6866 5.4791C12.2723 6.52858 12.0372 7.90533 11.1147 8.8278M17.067 18.9934C18.2004 18.9505 19.2258 18.2992 20.0628 17.4622C21.4558 16.0692 21.2686 13.8468 19.6839 12.9624L18.5209 12.3134C17.4715 11.7277 16.0947 11.9628 15.1722 12.8853" stroke-width="1.5"/>
      <path opacity="0.5" d="M5.00655 6.93311C4.93421 8.84124 5.41713 12.0817 8.6677 15.3323C11.9183 18.5829 15.1588 19.0658 17.0669 18.9935M15.1722 12.8853C15.1722 12.8853 14.0532 14.0042 12.0245 11.9755C9.99578 9.94676 11.1147 8.82782 11.1147 8.82782" stroke-width="1.5"/>
    </symbol>
    <!-- END LINE DUOTONE -->

    <!-- BEGIN BOLD DUOTONE -->
    <!-- Arrows -->
    <symbol id="boldDuotoneArrowsArrowUp">
      <path opacity="0.5" fill-rule="evenodd" clip-rule="evenodd" d="M12 20.75C12.4142 20.75 12.75 20.4142 12.75 20L12.75 10.75L11.25 10.75L11.25 20C11.25 20.4142 11.5858 20.75 12 20.75Z"/>
      <path d="M6.00002 10.75C5.69667 10.75 5.4232 10.5673 5.30711 10.287C5.19103 10.0068 5.25519 9.68417 5.46969 9.46967L11.4697 3.46967C11.6103 3.32902 11.8011 3.25 12 3.25C12.1989 3.25 12.3897 3.32902 12.5304 3.46967L18.5304 9.46967C18.7449 9.68417 18.809 10.0068 18.6929 10.287C18.5768 10.5673 18.3034 10.75 18 10.75L6.00002 10.75Z"/>
    </symbol>

    <!-- Time -->
    <symbol id="boldDuotoneTimeCalendarMark">
      <path d="M6.96006 2C7.37758 2 7.71605 2.30996 7.71605 2.69231V4.08883C8.38663 4.07692 9.13829 4.07692 9.98402 4.07692H14.016C14.8617 4.07692 15.6134 4.07692 16.284 4.08883V2.69231C16.284 2.30996 16.6224 2 17.0399 2C17.4575 2 17.7959 2.30996 17.7959 2.69231V4.15008C19.2468 4.25647 20.1992 4.51758 20.899 5.15838C21.5987 5.79917 21.8838 6.67139 22 8V9H2V8C2.11618 6.67139 2.4013 5.79917 3.10104 5.15838C3.80079 4.51758 4.75323 4.25647 6.20406 4.15008V2.69231C6.20406 2.30996 6.54253 2 6.96006 2Z"/>
      <path opacity="0.5" d="M22 14V12C22 11.161 21.9873 9.66527 21.9744 9H2.00586C1.99296 9.66527 2.00564 11.161 2.00564 12V14C2.00564 17.7712 2.00564 19.6569 3.17688 20.8284C4.34813 22 6.23321 22 10.0034 22H14.0023C17.7724 22 19.6575 22 20.8288 20.8284C22 19.6569 22 17.7712 22 14Z"/>
      <path d="M18 16.5C18 17.3284 17.3284 18 16.5 18C15.6716 18 15 17.3284 15 16.5C15 15.6716 15.6716 15 16.5 15C17.3284 15 18 15.6716 18 16.5Z"/>
    </symbol>
    <symbol id="boldDuotoneTimeCalendarMinimalistic">
      <path d="M6.94028 2C7.35614 2 7.69326 2.32421 7.69326 2.72414V4.18487C8.36117 4.17241 9.10983 4.17241 9.95219 4.17241H13.9681C14.8104 4.17241 15.5591 4.17241 16.227 4.18487V2.72414C16.227 2.32421 16.5641 2 16.98 2C17.3958 2 17.733 2.32421 17.733 2.72414V4.24894C19.178 4.36022 20.1267 4.63333 20.8236 5.30359C21.5206 5.97385 21.8046 6.88616 21.9203 8.27586L22 9H2.92456H2V8.27586C2.11571 6.88616 2.3997 5.97385 3.09665 5.30359C3.79361 4.63333 4.74226 4.36022 6.1873 4.24894V2.72414C6.1873 2.32421 6.52442 2 6.94028 2Z"/>
      <path opacity="0.5" d="M21.9995 14.0001V12.0001C21.9995 11.161 21.9963 9.66527 21.9834 9H2.00917C1.99626 9.66527 1.99953 11.161 1.99953 12.0001V14.0001C1.99953 17.7713 1.99953 19.6569 3.1711 20.8285C4.34267 22.0001 6.22829 22.0001 9.99953 22.0001H13.9995C17.7708 22.0001 19.6564 22.0001 20.828 20.8285C21.9995 19.6569 21.9995 17.7713 21.9995 14.0001Z"/>
    </symbol>

    <!-- Users -->
    <symbol id="boldDuotoneUsersUserRounded">
      <circle cx="12" cy="6" r="4"/>
      <ellipse opacity="0.5" cx="12" cy="17" rx="7" ry="4"/>
    </symbol>
    <symbol id="boldDuotoneUsersUserGroupTwoRounded">
      <path d="M15.5 7.5C15.5 9.433 13.933 11 12 11C10.067 11 8.5 9.433 8.5 7.5C8.5 5.567 10.067 4 12 4C13.933 4 15.5 5.567 15.5 7.5Z"/>
      <path opacity="0.5" d="M19.5 7.5C19.5 8.88071 18.3807 10 17 10C15.6193 10 14.5 8.88071 14.5 7.5C14.5 6.11929 15.6193 5 17 5C18.3807 5 19.5 6.11929 19.5 7.5Z"/>
      <path opacity="0.5" d="M4.5 7.5C4.5 8.88071 5.61929 10 7 10C8.38071 10 9.5 8.88071 9.5 7.5C9.5 6.11929 8.38071 5 7 5C5.61929 5 4.5 6.11929 4.5 7.5Z"/>
      <path d="M18 16.5C18 18.433 15.3137 20 12 20C8.68629 20 6 18.433 6 16.5C6 14.567 8.68629 13 12 13C15.3137 13 18 14.567 18 16.5Z"/>
      <path opacity="0.5" d="M22 16.5C22 17.8807 20.2091 19 18 19C15.7909 19 14 17.8807 14 16.5C14 15.1193 15.7909 14 18 14C20.2091 14 22 15.1193 22 16.5Z"/>
      <path opacity="0.5" d="M2 16.5C2 17.8807 3.79086 19 6 19C8.20914 19 10 17.8807 10 16.5C10 15.1193 8.20914 14 6 14C3.79086 14 2 15.1193 2 16.5Z"/>
    </symbol>

    <!-- Essentional UI -->
    <symbol id="boldDuotoneEssentionalUICheckCircle">
      <path opacity="0.5" d="M22 12C22 17.5228 17.5228 22 12 22C6.47715 22 2 17.5228 2 12C2 6.47715 6.47715 2 12 2C17.5228 2 22 6.47715 22 12Z"/>
      <path d="M16.0303 8.96967C16.3232 9.26256 16.3232 9.73744 16.0303 10.0303L11.0303 15.0303C10.7374 15.3232 10.2626 15.3232 9.96967 15.0303L7.96967 13.0303C7.67678 12.7374 7.67678 12.2626 7.96967 11.9697C8.26256 11.6768 8.73744 11.6768 9.03033 11.9697L10.5 13.4393L12.7348 11.2045L14.9697 8.96967C15.2626 8.67678 15.7374 8.67678 16.0303 8.96967Z"/>
    </symbol>
    <symbol id="boldDuotoneEssentionalUICloseCircle">
      <path opacity="0.5" d="M22 12C22 17.5228 17.5228 22 12 22C6.47715 22 2 17.5228 2 12C2 6.47715 6.47715 2 12 2C17.5228 2 22 6.47715 22 12Z"/>
      <path d="M8.96967 8.96967C9.26256 8.67678 9.73744 8.67678 10.0303 8.96967L12 10.9394L13.9697 8.96969C14.2626 8.6768 14.7374 8.6768 15.0303 8.96969C15.3232 9.26258 15.3232 9.73746 15.0303 10.0304L13.0607 12L15.0303 13.9696C15.3232 14.2625 15.3232 14.7374 15.0303 15.0303C14.7374 15.3232 14.2625 15.3232 13.9696 15.0303L12 13.0607L10.0304 15.0303C9.73746 15.3232 9.26258 15.3232 8.96969 15.0303C8.6768 14.7374 8.6768 14.2626 8.96969 13.9697L10.9394 12L8.96967 10.0303C8.67678 9.73744 8.67678 9.26256 8.96967 8.96967Z"/>
    </symbol>
    <symbol id="boldDuotoneEssentionalUIHome">
      <path opacity="0.5" d="M2 12.2039C2 9.91549 2 8.77128 2.5192 7.82274C3.0384 6.87421 3.98695 6.28551 5.88403 5.10813L7.88403 3.86687C9.88939 2.62229 10.8921 2 12 2C13.1079 2 14.1106 2.62229 16.116 3.86687L18.116 5.10812C20.0131 6.28551 20.9616 6.87421 21.4808 7.82274C22 8.77128 22 9.91549 22 12.2039V13.725C22 17.6258 22 19.5763 20.8284 20.7881C19.6569 22 17.7712 22 14 22H10C6.22876 22 4.34315 22 3.17157 20.7881C2 19.5763 2 17.6258 2 13.725V12.2039Z"/>
      <path d="M9 17.25C8.58579 17.25 8.25 17.5858 8.25 18C8.25 18.4142 8.58579 18.75 9 18.75H15C15.4142 18.75 15.75 18.4142 15.75 18C15.75 17.5858 15.4142 17.25 15 17.25H9Z"/>
    </symbol>
    
    <!-- School -->
    <symbol id="boldDuotoneSchoolSquareAcademicCap">
        <path d="M14.2172 3.49965C12.7962 2.83345 11.2037 2.83345 9.78272 3.49965L3.0916 6.63659C2.0156 7.14105 1.73507 8.56352 2.25 9.54666L2.25 14.5C2.25 14.9142 2.58579 15.25 3 15.25C3.41421 15.25 3.75 14.9142 3.75 14.5V10.672L9.78281 13.5003C11.2038 14.1665 12.7963 14.1665 14.2173 13.5003L20.9084 10.3634C22.3639 9.68105 22.3639 7.31899 20.9084 6.63664L14.2172 3.49965Z"/>
        <path opacity="0.5" d="M5 11.2581L9.78281 13.5003C11.2038 14.1665 12.7963 14.1665 14.2173 13.5003L19 11.2581V16.6252C19 17.6333 18.4965 18.577 17.6147 19.0654C16.1463 19.8786 13.796 20.9998 12 20.9998C10.204 20.9998 7.8537 19.8786 6.38533 19.0654C5.5035 18.577 5 17.6333 5 16.6252V11.2581Z"/>
    </symbol>
    <symbol id="boldDuotoneSchoolBook2">
      <path opacity="0.5" d="M4.72718 2.73332C5.03258 2.42535 5.46135 2.22456 6.27103 2.11478C7.10452 2.00177 8.2092 2 9.7931 2H14.2069C15.7908 2 16.8955 2.00177 17.729 2.11478C18.5387 2.22456 18.9674 2.42535 19.2728 2.73332C19.5782 3.0413 19.7773 3.47368 19.8862 4.2902C19.9982 5.13073 20 6.24474 20 7.84202L20 18H7.42598C6.34236 18 5.96352 18.0057 5.67321 18.0681C5.15982 18.1785 4.71351 18.4151 4.38811 18.7347C4.27837 18.8425 4.22351 18.8964 4.09696 19.2397C4.02435 19.4367 4 19.5687 4 19.7003V7.84202C4 6.24474 4.00176 5.13073 4.11382 4.2902C4.22268 3.47368 4.42179 3.0413 4.72718 2.73332Z"/>
      <path d="M20 18H7.42598C6.34236 18 5.96352 18.0057 5.67321 18.0681C5.15982 18.1785 4.71351 18.4151 4.38811 18.7347C4.27837 18.8425 4.22351 18.8964 4.09696 19.2397C3.97041 19.5831 3.99045 19.7288 4.03053 20.02C4.03761 20.0714 4.04522 20.1216 4.05343 20.1706C4.16271 20.8228 4.36259 21.1682 4.66916 21.4142C4.97573 21.6602 5.40616 21.8206 6.21896 21.9083C7.05566 21.9986 8.1646 22 9.75461 22H14.1854C15.7754 22 16.8844 21.9986 17.7211 21.9083C18.5339 21.8206 18.9643 21.6602 19.2709 21.4142C19.4705 21.254 19.6249 21.0517 19.7385 20.75H8C7.58579 20.75 7.25 20.4142 7.25 20C7.25 19.5858 7.58579 19.25 8 19.25H19.9754C19.9926 18.8868 19.9982 18.4741 20 18Z"/>
      <path d="M7.25 7C7.25 6.58579 7.58579 6.25 8 6.25H16C16.4142 6.25 16.75 6.58579 16.75 7C16.75 7.41421 16.4142 7.75 16 7.75H8C7.58579 7.75 7.25 7.41421 7.25 7Z"/>
      <path d="M8 9.75C7.58579 9.75 7.25 10.0858 7.25 10.5C7.25 10.9142 7.58579 11.25 8 11.25H13C13.4142 11.25 13.75 10.9142 13.75 10.5C13.75 10.0858 13.4142 9.75 13 9.75H8Z"/>
    </symbol>

    <!-- Settings Fine Tuning -->
    <symbol id="boldDuotoneSettingsFineTuningSettings">
      <path opacity="0.5" fill-rule="evenodd" clip-rule="evenodd" d="M14.2788 2.15224C13.9085 2 13.439 2 12.5 2C11.561 2 11.0915 2 10.7212 2.15224C10.2274 2.35523 9.83509 2.74458 9.63056 3.23463C9.53719 3.45834 9.50065 3.7185 9.48635 4.09799C9.46534 4.65568 9.17716 5.17189 8.69017 5.45093C8.20318 5.72996 7.60864 5.71954 7.11149 5.45876C6.77318 5.2813 6.52789 5.18262 6.28599 5.15102C5.75609 5.08178 5.22018 5.22429 4.79616 5.5472C4.47814 5.78938 4.24339 6.1929 3.7739 6.99993C3.30441 7.80697 3.06967 8.21048 3.01735 8.60491C2.94758 9.1308 3.09118 9.66266 3.41655 10.0835C3.56506 10.2756 3.77377 10.437 4.0977 10.639C4.57391 10.936 4.88032 11.4419 4.88029 12C4.88026 12.5581 4.57386 13.0639 4.0977 13.3608C3.77372 13.5629 3.56497 13.7244 3.41645 13.9165C3.09108 14.3373 2.94749 14.8691 3.01725 15.395C3.06957 15.7894 3.30432 16.193 3.7738 17C4.24329 17.807 4.47804 18.2106 4.79606 18.4527C5.22008 18.7756 5.75599 18.9181 6.28589 18.8489C6.52778 18.8173 6.77305 18.7186 7.11133 18.5412C7.60852 18.2804 8.2031 18.27 8.69012 18.549C9.17714 18.8281 9.46533 19.3443 9.48635 19.9021C9.50065 20.2815 9.53719 20.5417 9.63056 20.7654C9.83509 21.2554 10.2274 21.6448 10.7212 21.8478C11.0915 22 11.561 22 12.5 22C13.439 22 13.9085 22 14.2788 21.8478C14.7726 21.6448 15.1649 21.2554 15.3694 20.7654C15.4628 20.5417 15.4994 20.2815 15.5137 19.902C15.5347 19.3443 15.8228 18.8281 16.3098 18.549C16.7968 18.2699 17.3914 18.2804 17.8886 18.5412C18.2269 18.7186 18.4721 18.8172 18.714 18.8488C19.2439 18.9181 19.7798 18.7756 20.2038 18.4527C20.5219 18.2105 20.7566 17.807 21.2261 16.9999C21.6956 16.1929 21.9303 15.7894 21.9827 15.395C22.0524 14.8691 21.9088 14.3372 21.5835 13.9164C21.4349 13.7243 21.2262 13.5628 20.9022 13.3608C20.4261 13.0639 20.1197 12.558 20.1197 11.9999C20.1197 11.4418 20.4261 10.9361 20.9022 10.6392C21.2263 10.4371 21.435 10.2757 21.5836 10.0835C21.9089 9.66273 22.0525 9.13087 21.9828 8.60497C21.9304 8.21055 21.6957 7.80703 21.2262 7C20.7567 6.19297 20.522 5.78945 20.2039 5.54727C19.7799 5.22436 19.244 5.08185 18.7141 5.15109C18.4722 5.18269 18.2269 5.28136 17.8887 5.4588C17.3915 5.71959 16.7969 5.73002 16.3099 5.45096C15.8229 5.17191 15.5347 4.65566 15.5136 4.09794C15.4993 3.71848 15.4628 3.45833 15.3694 3.23463C15.1649 2.74458 14.7726 2.35523 14.2788 2.15224Z"/>
      <path d="M15.5227 12C15.5227 13.6569 14.1694 15 12.4999 15C10.8304 15 9.47705 13.6569 9.47705 12C9.47705 10.3431 10.8304 9 12.4999 9C14.1694 9 15.5227 10.3431 15.5227 12Z"/>
    </symbol>
    <!-- END BOLD DUOTONE -->
  </defs>
</svg>
